<mxfile host="app.diagrams.net" agent="Mozilla/5.0 (Windows NT 10.0; Win64; x64) AppleWebKit/537.36 (KHTML, like Gecko) Chrome/136.0.0.0 Safari/537.36" version="27.1.0">
  <diagram name="Page-1" id="V66jjtAIcyRsQLiRkZYL">
    <mxGraphModel dx="1726" dy="777" grid="1" gridSize="10" guides="1" tooltips="1" connect="1" arrows="1" fold="1" page="1" pageScale="1" pageWidth="300" pageHeight="500" math="0" shadow="0">
      <root>
        <mxCell id="0" />
        <mxCell id="1" parent="0" />
        <mxCell id="elJnN8FyRu267nW9WN58-1" value="" style="rounded=0;whiteSpace=wrap;html=1;" parent="1" vertex="1">
          <mxGeometry x="-280" y="85" width="560" height="140" as="geometry" />
        </mxCell>
        <mxCell id="elJnN8FyRu267nW9WN58-2" value="" style="rounded=0;whiteSpace=wrap;html=1;" parent="1" vertex="1">
          <mxGeometry x="-280" y="275" width="560" height="140" as="geometry" />
        </mxCell>
        <mxCell id="elJnN8FyRu267nW9WN58-5" value="" style="shape=image;verticalLabelPosition=bottom;labelBackgroundColor=default;verticalAlign=top;aspect=fixed;imageAspect=0;image=https://static.thenounproject.com/png/47752-200.png;" parent="1" vertex="1">
          <mxGeometry x="-260" y="97.5" width="115" height="115" as="geometry" />
        </mxCell>
        <mxCell id="elJnN8FyRu267nW9WN58-6" value="" style="shape=image;verticalLabelPosition=bottom;labelBackgroundColor=default;verticalAlign=top;aspect=fixed;imageAspect=0;image=https://static.thenounproject.com/png/47752-200.png;" parent="1" vertex="1">
          <mxGeometry x="-130" y="97.5" width="115" height="115" as="geometry" />
        </mxCell>
        <mxCell id="elJnN8FyRu267nW9WN58-7" value="" style="shape=image;verticalLabelPosition=bottom;labelBackgroundColor=default;verticalAlign=top;aspect=fixed;imageAspect=0;image=https://static.thenounproject.com/png/47752-200.png;" parent="1" vertex="1">
          <mxGeometry x="2.5" y="97.5" width="115" height="115" as="geometry" />
        </mxCell>
        <mxCell id="elJnN8FyRu267nW9WN58-8" value="" style="shape=image;verticalLabelPosition=bottom;labelBackgroundColor=default;verticalAlign=top;aspect=fixed;imageAspect=0;image=https://static.thenounproject.com/png/47752-200.png;" parent="1" vertex="1">
          <mxGeometry x="140" y="97.5" width="115" height="115" as="geometry" />
        </mxCell>
        <mxCell id="elJnN8FyRu267nW9WN58-10" value="&lt;i&gt;&lt;u&gt;&lt;font style=&quot;font-size: 14px;&quot;&gt;Shipments&lt;/font&gt;&lt;/u&gt;&lt;/i&gt;" style="text;html=1;align=center;verticalAlign=middle;resizable=0;points=[];autosize=1;strokeColor=none;fillColor=none;fontStyle=1" parent="1" vertex="1">
          <mxGeometry x="-45" y="85" width="90" height="30" as="geometry" />
        </mxCell>
        <mxCell id="elJnN8FyRu267nW9WN58-12" value="s&lt;sub&gt;3&lt;/sub&gt;" style="text;html=1;align=center;verticalAlign=middle;resizable=0;points=[];autosize=1;strokeColor=none;fillColor=none;fontStyle=1" parent="1" vertex="1">
          <mxGeometry x="-250" y="125" width="40" height="30" as="geometry" />
        </mxCell>
        <mxCell id="elJnN8FyRu267nW9WN58-13" value="s&lt;sub&gt;1&lt;/sub&gt;" style="text;html=1;align=center;verticalAlign=middle;resizable=0;points=[];autosize=1;strokeColor=none;fillColor=none;fontStyle=1" parent="1" vertex="1">
          <mxGeometry x="-120" y="125" width="40" height="30" as="geometry" />
        </mxCell>
        <mxCell id="elJnN8FyRu267nW9WN58-14" value="s&lt;sub&gt;2&lt;/sub&gt;" style="text;html=1;align=center;verticalAlign=middle;resizable=0;points=[];autosize=1;strokeColor=none;fillColor=none;fontStyle=1" parent="1" vertex="1">
          <mxGeometry x="10" y="125" width="40" height="30" as="geometry" />
        </mxCell>
        <mxCell id="elJnN8FyRu267nW9WN58-15" value="s&lt;sub&gt;4&lt;/sub&gt;" style="text;html=1;align=center;verticalAlign=middle;resizable=0;points=[];autosize=1;strokeColor=none;fillColor=none;fontStyle=1" parent="1" vertex="1">
          <mxGeometry x="150" y="125" width="40" height="30" as="geometry" />
        </mxCell>
        <mxCell id="elJnN8FyRu267nW9WN58-16" value="" style="shape=image;verticalLabelPosition=bottom;labelBackgroundColor=default;verticalAlign=top;aspect=fixed;imageAspect=0;image=https://img.freepik.com/premium-vector/vector-icon-cargo-truck-truck-icon-vector-free-delivery-icon_971593-333.jpg;" parent="1" vertex="1">
          <mxGeometry x="-253.69" y="310" width="102.38" height="70" as="geometry" />
        </mxCell>
        <mxCell id="elJnN8FyRu267nW9WN58-17" value="" style="shape=image;verticalLabelPosition=bottom;labelBackgroundColor=default;verticalAlign=top;aspect=fixed;imageAspect=0;image=https://img.freepik.com/premium-vector/vector-icon-cargo-truck-truck-icon-vector-free-delivery-icon_971593-333.jpg;" parent="1" vertex="1">
          <mxGeometry x="-120" y="310" width="102.38" height="70" as="geometry" />
        </mxCell>
        <mxCell id="elJnN8FyRu267nW9WN58-18" value="" style="shape=image;verticalLabelPosition=bottom;labelBackgroundColor=default;verticalAlign=top;aspect=fixed;imageAspect=0;image=https://img.freepik.com/premium-vector/vector-icon-cargo-truck-truck-icon-vector-free-delivery-icon_971593-333.jpg;" parent="1" vertex="1">
          <mxGeometry x="15.120000000000005" y="310" width="102.38" height="70" as="geometry" />
        </mxCell>
        <mxCell id="elJnN8FyRu267nW9WN58-19" value="" style="shape=image;verticalLabelPosition=bottom;labelBackgroundColor=default;verticalAlign=top;aspect=fixed;imageAspect=0;image=https://img.freepik.com/premium-vector/vector-icon-cargo-truck-truck-icon-vector-free-delivery-icon_971593-333.jpg;" parent="1" vertex="1">
          <mxGeometry x="146.31" y="310" width="102.38" height="70" as="geometry" />
        </mxCell>
        <mxCell id="elJnN8FyRu267nW9WN58-20" value="c&lt;sub&gt;1&lt;/sub&gt;" style="text;html=1;align=center;verticalAlign=middle;resizable=0;points=[];autosize=1;strokeColor=none;fillColor=none;fontStyle=1" parent="1" vertex="1">
          <mxGeometry x="-222.5" y="375" width="40" height="30" as="geometry" />
        </mxCell>
        <mxCell id="elJnN8FyRu267nW9WN58-21" value="c&lt;sub&gt;2&lt;/sub&gt;" style="text;html=1;align=center;verticalAlign=middle;resizable=0;points=[];autosize=1;strokeColor=none;fillColor=none;fontStyle=1" parent="1" vertex="1">
          <mxGeometry x="-88.81" y="375" width="40" height="30" as="geometry" />
        </mxCell>
        <mxCell id="elJnN8FyRu267nW9WN58-22" value="c&lt;sub&gt;4&lt;/sub&gt;" style="text;html=1;align=center;verticalAlign=middle;resizable=0;points=[];autosize=1;strokeColor=none;fillColor=none;fontStyle=1" parent="1" vertex="1">
          <mxGeometry x="46.31" y="375" width="40" height="30" as="geometry" />
        </mxCell>
        <mxCell id="elJnN8FyRu267nW9WN58-23" value="c&lt;sub&gt;5&lt;/sub&gt;" style="text;html=1;align=center;verticalAlign=middle;resizable=0;points=[];autosize=1;strokeColor=none;fillColor=none;fontStyle=1" parent="1" vertex="1">
          <mxGeometry x="177.5" y="375" width="40" height="30" as="geometry" />
        </mxCell>
        <mxCell id="elJnN8FyRu267nW9WN58-24" value="&lt;span style=&quot;font-size: 14px;&quot;&gt;&lt;i&gt;&lt;u&gt;Carriers&lt;/u&gt;&lt;/i&gt;&lt;/span&gt;" style="text;html=1;align=center;verticalAlign=middle;resizable=0;points=[];autosize=1;strokeColor=none;fillColor=none;fontStyle=1" parent="1" vertex="1">
          <mxGeometry x="-35" y="280" width="70" height="30" as="geometry" />
        </mxCell>
        <mxCell id="elJnN8FyRu267nW9WN58-25" value="" style="endArrow=classic;html=1;rounded=0;exitX=0.5;exitY=1;exitDx=0;exitDy=0;entryX=0.634;entryY=0;entryDx=0;entryDy=0;entryPerimeter=0;" parent="1" edge="1">
          <mxGeometry width="50" height="50" relative="1" as="geometry">
            <mxPoint x="-213.97000000000003" y="198" as="sourcePoint" />
            <mxPoint x="68.97891999999997" y="303" as="targetPoint" />
          </mxGeometry>
        </mxCell>
        <mxCell id="elJnN8FyRu267nW9WN58-26" value="" style="endArrow=classic;html=1;rounded=0;exitX=0.5;exitY=1;exitDx=0;exitDy=0;" parent="1" edge="1">
          <mxGeometry width="50" height="50" relative="1" as="geometry">
            <mxPoint x="-69.23000000000002" y="205" as="sourcePoint" />
            <mxPoint x="-190" y="300" as="targetPoint" />
          </mxGeometry>
        </mxCell>
        <mxCell id="elJnN8FyRu267nW9WN58-27" value="" style="endArrow=classic;html=1;rounded=0;exitX=0.5;exitY=0.978;exitDx=0;exitDy=0;entryX=0.5;entryY=0;entryDx=0;entryDy=0;exitPerimeter=0;" parent="1" edge="1">
          <mxGeometry width="50" height="50" relative="1" as="geometry">
            <mxPoint x="64.4" y="200.00000000000003" as="sourcePoint" />
            <mxPoint x="-64.40999999999994" y="300.03" as="targetPoint" />
          </mxGeometry>
        </mxCell>
        <mxCell id="elJnN8FyRu267nW9WN58-28" value="" style="endArrow=classic;html=1;rounded=0;exitX=0.5;exitY=1;exitDx=0;exitDy=0;" parent="1" edge="1">
          <mxGeometry width="50" height="50" relative="1" as="geometry">
            <mxPoint x="199.46" y="201" as="sourcePoint" />
            <mxPoint x="199" y="299" as="targetPoint" />
          </mxGeometry>
        </mxCell>
      </root>
    </mxGraphModel>
  </diagram>
</mxfile>
